<svg id="Capa_1" enable-background="new 0 0 509.945 509.945" height="512" viewBox="0 0 509.945 509.945" width="512" xmlns="http://www.w3.org/2000/svg"><g><g id="XMLID_90_"><path d="m73.442 99.537c-9.328-38.16-52.053-68.256-65.272-82.211l49.021-1.93c40.128-1.582 84.245 7.748 118.498 24.674z" fill="#19cffc"/></g><path d="m.009 271.731c1.153 133.907 144.755 251.529 269.936 216.128l10-44.304-10-53.833h-60.001c-27.957 0-51.448-19.122-58.109-45 0 0 108.494-104.388 118.11-104.247l10-100.753-10-108.144c-143.335-15.104-271.161 98.193-269.936 240.153z" fill="#96e8ff"/><path d="m479.945 180.222h-14.123c.075-1.293.123-2.605.123-3.953 0-36.475-77.724-132.229-196-144.691v208.897c29.637.435 69.845 1.151 94.383-.253h115.617c16.568 0 30-13.432 30-30 0-16.569-13.431-30-30-30z" fill="#19cffc"/><path d="m344.945 150.222h30v30h-30z" fill="#4a98f7"/><g fill="#19cffc"><path d="m194.445 345.222h-89.5v-29.5c0-41.631 33.869-75.5 75.5-75.5h89.5v29.5c0 41.631-33.869 75.5-75.5 75.5z"/><path d="m374.957 449.827.001.023c1.186 25.117 21.896 44.872 47.042 44.872h57.945v-15c0-33.137-26.863-60-60-60 33.137 0 60-26.863 60-60v-15h-60.08c-24.809 0-44.92 20.111-44.92 44.919 0 .159 5.1.042-105 .081v98.137c7.562-2.138 104.991-38.224 105.012-38.032z"/></g></g></svg>